<?xml version="1.0" encoding="UTF-8"?><svg id="Layer_1" xmlns="http://www.w3.org/2000/svg" viewBox="0 0 120 120"><defs><style>.cls-1,.cls-2{fill:#fff;stroke:#fff;}.cls-1,.cls-2,.cls-3{stroke-linecap:round;stroke-linejoin:round;stroke-width:2px;}.cls-2{opacity:.6;}.cls-4{fill:#4a5058;}.cls-3{fill:none;stroke:#4a5058;}.cls-5{fill:#f17b88;}.cls-6{fill:#90d1bb;}</style></defs><polygon class="cls-5" points="100.53 53.89 112.93 53.89 108.81 60.37 112.93 67.63 100.53 67.63 100.53 53.89"/><polygon class="cls-5" points="100.92 27.95 113.31 27.95 109.19 34.42 113.31 41.68 100.92 41.68 100.92 27.95"/><rect class="cls-6" x="7.81" y="2" width="94.25" height="116" rx="2" ry="2"/><path class="cls-4" d="m9.81,2h12.5v116h-12.5c-1.1,0-2-.9-2-2V4c0-1.1.9-2,2-2Z"/><path class="cls-3" d="m87.94,82.89h-51.89,51.89Z"/><path class="cls-3" d="m80.31,98.92h-36.63,36.63Z"/><path class="cls-1" d="m80.31,60v-13.74s8.39.06,8.39-12.21-13.42-11.64-13.42-11.64c0,0-1.85-12.25-13.29-12.25s-11.77,11.64-11.77,11.64c0,0-14.95,1.57-14.95,10.73s6.98,13.74,6.98,13.74v13.74h38.05Z"/><rect class="cls-2" x="42.3" y="56.78" width="38.05" height="13.74"/></svg>